<?xml version="1.0" standalone="no"?>
<!DOCTYPE svg PUBLIC "-//W3C//DTD SVG 1.1//EN" "http://www.w3.org/Graphics/SVG/1.1/DTD/svg11.dtd" >
<svg>
<metadata>
Created by FontForge 20120731 at Mon Jan 27 00:23:41 2014
 By root
Created by www-data with FontForge 2.0 (http://fontforge.sf.net)
</metadata>
<defs>
<font id="stefan" horiz-adv-x="456" >
  <font-face 
    font-family="stefan"
    font-weight="500"
    font-stretch="normal"
    units-per-em="1000"
    panose-1="2 0 6 3 0 0 0 0 0 0"
    ascent="800"
    descent="-200"
    x-height="392"
    cap-height="513"
    bbox="28.7375 -194 623 622.458"
    underline-thickness="50"
    underline-position="-100"
    stemh="26"
    stemv="32"
    unicode-range="U+0020-0094"
  />
<missing-glyph horiz-adv-x="500" 
d="M50 0v533h400v-533h-400zM100 50h300v433h-300v-433z" />
    <glyph glyph-name=".notdef" horiz-adv-x="500" 
d="M50 0v533h400v-533h-400zM100 50h300v433h-300v-433z" />
    <glyph glyph-name="space" unicode=" " horiz-adv-x="289" 
 />
    <glyph glyph-name="exclam" unicode="!" horiz-adv-x="120" 
d="M49 153c24 19 46 3 40 -29c-3 -15 -8 -23 -25 -28c-23 -7 -20 -9 -30 6c-8 12 -1 39 15 51zM50 534c-9 13 8 24 20 22s13 -4 14 -131c1 -104 0 -130 -7 -137s-11 -6 -20 8c-11 15 -11 24 -9 105c2 49 4 89 5 91c5 5 3 33 -3 42z" />
    <glyph glyph-name="quotedbl" unicode="&#x22;" horiz-adv-x="202" 
d="M31 547c5 6 24 2 35 3v-65c2 -65 1 -72 -20 -58c-8 5 -20 109 -15 120zM145 407c-7 0 -9 9 -7 50c1 27 -1 58 -5 69c-5 15 -4 21 2 28c9 11 26 12 31 3c15 -25 -2 -150 -21 -150z" />
    <glyph glyph-name="dollar" unicode="$" horiz-adv-x="415" 
d="M273 333c-10 -1 -20 18 -29 17c-13 10 -5 -167 -7 -204c52 -10 102 9 117 47c7 20 1 63 -10 67c-5 2 -8 7 -8 12c0 11 -52 61 -63 61zM212 484c0 12 -3 20 -7 20c-46 -5 -100 -29 -100 -44c0 -6 16 -21 23 -21c3 0 8 -4 13 -9c10 -10 46 -28 63 -38c3 25 8 70 8 92z
M75 444c-7 22 -1 55 20 54c8 0 16 2 18 4c7 7 65 26 79 26c15 0 21 9 14 23c-2 5 -3 15 0 23c10 27 47 6 38 -22c-2 -9 2 -11 29 -18c40 -9 71 -34 87 -70c15 -33 14 -46 -6 -46c-11 0 -16 4 -19 15c-8 34 -13 42 -39 59c-35 23 -47 23 -51 -1c-5 -28 -6 -102 -2 -109
c2 -4 15 -12 29 -19c33 -15 78 -58 97 -92c37 -65 9 -133 -58 -149c-22 -5 -44 -9 -76 -8v-30c0 -29 0 -30 -17 -30c-22 0 -26 7 -19 43l5 28l-33 10c-57 18 -125 69 -125 96c0 4 -4 14 -9 22c-12 18 -7 54 11 75c14 15 58 30 73 24c12 -5 -1 -17 -22 -21
c-28 -6 -43 -26 -39 -51c4 -30 30 -72 57 -91c24 -17 79 -36 85 -30c5 18 4 155 4 201c-35 18 -130 65 -131 84z" />
    <glyph glyph-name="percent" unicode="%" horiz-adv-x="531" 
d="M303 185c0 -44 54 -54 108 -21c60 38 78 95 45 146c-14 21 -30 25 -57 16c-33 -12 -96 -105 -96 -141zM397 356c43 6 65 -5 92 -49c17 -27 16 -85 -2 -111c-21 -30 -36 -43 -66 -60c-54 -30 -102 -26 -138 11c-21 22 -19 45 9 101c33 64 71 103 105 108zM182 443
c0 25 -3 40 -9 46c-10 9 -14 7 -62 -26c-34 -24 -56 -66 -44 -81c21 -25 62 -23 94 5c20 17 21 20 21 56zM135 546c47 0 83 -57 75 -118c-5 -38 -20 -58 -58 -75c-43 -20 -74 -19 -101 2c-37 29 -25 76 31 123c54 46 53 45 42 51c-15 8 -5 17 11 17zM340 557
c15 0 22 -23 13 -38c-31 -52 -66 -125 -101 -184c-37 -62 -64 -117 -98 -190c-18 -38 -28 -55 -35 -55c-12 0 -16 25 -5 32c4 2 6 11 6 19c11 44 48 99 70 144c46 92 80 135 122 233c12 29 20 39 28 39z" />
    <glyph glyph-name="ampersand" unicode="&#x26;" horiz-adv-x="494" 
d="M94 155c5 0 12 -3 15 -6c7 -7 114 4 124 13c4 4 -5 15 -21 30c-33 31 -53 59 -70 92c-14 28 -19 29 -46 12c-22 -14 -37 -39 -34 -59c8 -53 20 -82 32 -82zM194 380c11 0 31 9 52 24c16 11 26 53 17 65c-4 5 -12 12 -20 16c-24 14 -85 3 -95 -18c-8 -16 -18 -80 -13 -85
c4 -4 5 -6 5 -23c0 -15 44 15 41 17c1 2 7 4 13 4zM70 132c-3 10 -33 36 -30 54c4 26 -19 58 -4 83c10 17 45 52 55 52c18 11 25 14 16 59c-13 65 16 122 54 132c43 12 110 0 110 -15c0 -2 4 -5 8 -5c9 0 22 -25 22 -43c0 -14 -12 -72 -29 -68c-7 -1 -13 -4 -13 -7
c0 -7 -61 -36 -76 -36c-28 0 -39 -14 -21 -29c5 -4 9 -12 9 -17c0 -12 70 -101 85 -105c26 -6 105 106 92 112c-1 1 -16 10 -31 19c-28 17 -34 31 -20 43c9 7 27 0 41 -15c7 -8 16 -11 26 -9c11 2 15 0 18 -9c3 -12 40 -31 61 -31c13 0 14 -4 6 -17c-4 -7 -11 -7 -37 -2
c-47 9 -34 7 -54 -29c-9 -16 -27 -45 -42 -60c-31 -32 -29 -32 16 -57c32 -18 77 -11 101 6c9 6 19 10 25 8c9 -4 9 -7 0 -15c-11 -10 -74 -51 -97 -35c-35 11 -90 37 -90 42c0 8 -20 6 -32 -3c-23 -16 -169 -19 -169 -3z" />
    <glyph glyph-name="quotesingle" unicode="'" horiz-adv-x="102" 
d="M38 563c7 4 13 2 20 -7c29 -23 7 -108 -7 -131c-13 -13 -20 8 -21 70c-1 51 0 64 8 68z" />
    <glyph glyph-name="parenleft" unicode="(" horiz-adv-x="219" 
d="M88 70c0 -12 19 -40 18 -52c-1 -14 11 -8 12 -17c0 -4 8 -18 18 -30c22 -28 12 -31 -23 -7c-36 25 -54 102 -72 167c-11 39 -12 55 -10 133c3 114 5 89 18 135c6 21 36 85 47 95c9 9 52 64 66 69c12 4 27 -2 27 -13c2 -6 -86 -94 -83 -101c0 -4 -3 -11 -7 -15
c-7 -7 -31 -66 -38 -93c-2 -7 -3 -47 -3 -91c0 -70 1 -86 15 -126c8 -25 15 -49 15 -54z" />
    <glyph glyph-name="parenright" unicode=")" horiz-adv-x="233" 
d="M129 49c0 13 30 68 29 81c0 7 3 14 5 16c8 5 10 39 9 133c-1 57 -2 86 -7 88c-4 1 -7 7 -7 12c0 13 -30 72 -37 72c-2 0 -4 4 -4 8c0 15 -27 38 -52 45c-24 7 -41 24 -33 32c6 6 40 5 57 -2c37 -5 108 -146 99 -147c0 -9 3 -20 7 -24c10 -11 10 -177 0 -220
c-24 -98 -55 -153 -80 -144c-14 5 -12 18 2 30c7 6 12 15 12 20z" />
    <glyph glyph-name="asterisk" unicode="*" horiz-adv-x="398" 
d="M190 386c7 0 71 -43 79 -42c5 0 10 -2 12 -6c4 -5 32 -14 65 -20s28 -15 -8 -19c-27 -3 -83 13 -123 37c-34 20 -39 18 -35 -8c2 -12 5 -46 7 -74c4 -45 2 -52 -6 -52c-19 0 -32 43 -33 105c-1 82 -4 86 -41 55c-31 -26 -51 -33 -62 -21c-8 8 -8 10 3 21
c18 18 21 7 39 26l14 13c-14 14 -29 24 -49 37c-18 11 -22 17 -22 31s2 17 14 17c26 0 47 -38 71 -48l22 -11c1 35 -2 59 -10 93c-7 30 -7 39 -2 46c9 11 15 11 30 3c9 -5 11 -13 11 -49c0 -54 6 -64 23 -41c22 30 39 44 51 42c24 -4 17 -23 -22 -61
c-21 -20 -39 -40 -41 -45c-4 -10 5 -29 13 -29z" />
    <glyph glyph-name="plus" unicode="+" horiz-adv-x="437" 
d="M133 279c40 0 36 -7 35 76c-1 31 2 53 7 58c10 12 22 10 26 -4c5 -17 5 -68 0 -99s2 -36 55 -26c32 6 102 10 130 15c7 7 23 -8 20 -19c-2 -9 -9 -12 -44 -15c-54 -5 -147 -16 -157 -19c-6 -2 -4 -13 -4 -51c0 -43 12 -48 0 -65c-12 -18 -27 -7 -28 23
c-2 95 -3 98 -32 92c-8 -1 -34 0 -58 2c-38 4 -45 5 -50 17c-10 22 5 31 38 22c14 -4 42 -7 62 -7z" />
    <glyph glyph-name="comma" unicode="," horiz-adv-x="145" 
d="M30 -14c0 13 2 16 14 12c12 -3 16 0 27 22c19 39 17 56 -8 66c-11 5 -21 11 -21 12c0 11 20 37 31 40c37 11 41 4 42 -55c1 -43 -1 -52 -15 -76c-25 -42 -70 -56 -70 -21z" />
    <glyph glyph-name="hyphen" unicode="-" horiz-adv-x="350" 
d="M320 244c0 -28 -16 -32 -151 -28c-65 2 -124 5 -129 7c-11 5 -13 13 -6 30c3 9 10 9 60 6c55 -4 120 -6 163 -12c10 -2 26 1 35 6c24 12 28 11 28 -9z" />
    <glyph glyph-name="period" unicode="." horiz-adv-x="128" 
d="M98 110c0 -18 -14 -35 -25 -30c-30 15 -43 27 -43 40c0 11 4 15 18 18c10 2 18 4 20 5c10 2 30 -20 30 -33z" />
    <glyph glyph-name="slash" unicode="/" horiz-adv-x="227" 
d="M60 198c0 13 13 13 11 29c0 7 6 22 12 34c22 43 63 178 73 240c6 39 9 45 20 45c21 0 24 -12 17 -43c-7 -29 -12 -26 -15 -48c9 4 -97 -299 -98 -291c-4 -9 -11 -29 -15 -43c-6 -21 -10 -25 -21 -25c-12 0 -14 3 -14 21c0 11 3 20 6 20c4 0 6 4 6 9c0 11 18 40 18 52z
" />
    <glyph glyph-name="zero" unicode="0" horiz-adv-x="387" 
d="M243 579c0 18 27 7 53 -21c19 -20 33 -42 45 -75c16 -43 17 -51 16 -124c0 -112 -4 -78 -23 -148c-6 -20 -14 -38 -18 -40s-8 -8 -8 -13c0 -9 -37 -38 -61 -49c-20 -9 -86 -9 -108 -1c-52 19 -109 126 -109 216c0 39 3 61 10 75c30 55 8 35 33 72c7 11 16 23 18 29
c4 13 19 7 24 18c6 14 62 39 87 39c28 0 48 -25 65 -40c-5 -10 -18 -34 -24 -37c-2 0 -7 9 -12 20c-5 12 -14 20 -23 21c-17 2 -60 -10 -60 -18c0 -2 -2 -5 -5 -5c-6 0 -42 -34 -42 -39c0 -2 -5 -11 -11 -19c-38 -56 -40 -150 -6 -229c31 -72 91 -102 151 -77
c24 10 61 46 61 59c0 5 3 9 6 9s6 8 8 17s7 29 11 44c12 41 10 154 -3 191c-15 44 -40 87 -58 103c-9 8 -17 18 -17 22z" />
    <glyph glyph-name="one" unicode="1" horiz-adv-x="112" 
d="M67 161c-18 0 -15 61 -20 74c-2 15 -16 175 -17 195c-1 31 9 113 14 119c8 10 20 6 29 -12c6 -11 5 -18 0 -33c-8 -24 -8 -217 0 -222c4 -2 5 -6 3 -9s-1 -24 3 -48c7 -49 4 -64 -12 -64z" />
    <glyph glyph-name="two" unicode="2" horiz-adv-x="472" 
d="M103 120c84 2 226 63 294 65c26 0 50 -22 44 -41c-5 -17 -11 -16 -23 2c-5 8 -14 15 -21 15c-16 0 -139 -35 -178 -48c-35 -11 -64 -20 -106 -25c-15 -1 -31 -5 -37 -7c-17 -7 -46 8 -46 24c0 8 4 15 8 15c15 0 43 17 71 44c15 15 30 27 32 27c5 1 62 79 71 100
c20 43 37 101 37 123c0 29 -20 70 -37 75c-24 6 -77 -12 -94 -30c-11 -12 -13 -46 -34 -48c-14 -1 -14 -1 -10 26c2 15 6 32 10 37c9 15 45 37 60 37s32 11 46 8c23 -4 47 -10 62 -27c17 -18 18 -19 17 -75c-1 -51 -4 -62 -20 -96c-47 -101 -72 -127 -137 -185
c-13 -12 -16 -16 -9 -16z" />
    <glyph glyph-name="three" unicode="3" horiz-adv-x="507" 
d="M319 389c0 -8 19 -15 40 -15s65 -27 87 -52c37 -43 41 -98 10 -134c-16 -19 -65 -48 -98 -56c-57 -16 -64 -25 -154 -25l-79 -2c-46 30 -80 50 -91 117c-4 27 -6 36 3 54c5 12 13 21 16 21s5 -20 5 -44c0 -37 3 -48 15 -68c25 -39 49 -48 135 -48c73 0 93 4 163 29
c31 11 18 11 40 25c16 11 43 52 32 84c-17 50 -61 81 -127 81c-21 0 -39 -2 -41 -6c-9 -9 -33 -4 -46 -12c-15 -9 -31 5 -25 20c4 9 8 11 40 18c9 2 33 21 54 41c33 30 39 39 39 56c0 16 -4 22 -19 31c-22 14 -38 14 -72 5c-43 -12 -62 -22 -83 -47c-33 -39 -61 -21 -31 20
c26 35 113 70 178 54c42 -10 62 -51 45 -93c-9 -24 -28 -37 -36 -54z" />
    <glyph glyph-name="four" unicode="4" horiz-adv-x="348" 
d="M318 272c0 -15 -10 -23 -45 -35c-51 -18 -50 -17 -48 -81c2 -49 0 -57 -8 -59c-5 -1 -12 3 -14 9c-3 8 -8 64 -9 104c0 2 -5 2 -10 -1c-18 -9 -80 -21 -110 -21c-39 0 -48 12 -43 56c10 77 35 94 42 185c2 19 13 34 24 34c25 0 0 -71 -2 -90c-1 -12 -5 -23 -7 -23
c-7 0 -23 -90 -23 -112c0 -34 37 -18 61 -14c21 9 59 9 71 22c1 4 4 56 6 116c4 146 9 203 16 212c20 24 30 -38 17 -114c-7 -40 -11 -146 -13 -205c34 4 49 13 76 21c14 4 19 2 19 -4z" />
    <glyph glyph-name="five" unicode="5" horiz-adv-x="411" 
d="M345 534c4 0 20 -20 20 -24c4 -16 -65 -24 -83 -28c-30 -7 -85 -37 -119 -37c-13 0 -13 -4 -2 -31c5 -12 9 -34 9 -49c0 -30 9 -35 39 -18c16 9 35 6 47 15c12 8 23 -1 50 -2c28 -1 35 -6 51 -24s19 -27 23 -61c9 -97 -49 -139 -193 -138c-121 0 -171 30 -153 92
c13 43 19 55 27 59c11 2 4 20 15 21c4 0 5 -5 3 -13c0 -13 -32 -89 -13 -101c13 -21 56 -30 136 -30c52 0 71 3 93 13c41 18 52 36 52 83c0 37 -1 42 -18 59c-15 15 -23 18 -44 18c-23 0 -49 -8 -102 -33c-10 -5 -25 -8 -34 -7c-15 2 -17 3 -17 50c0 55 -14 66 -33 97
c22 15 43 26 82 33c48 9 74 27 112 35c16 3 42 16 52 21z" />
    <glyph glyph-name="six" unicode="6" horiz-adv-x="436" 
d="M307 344c27 2 22 -11 42 -11c15 0 46 -38 54 -66c17 -57 -34 -129 -113 -162c-64 -27 -151 -27 -184 1c-5 4 -12 8 -15 8c-12 0 -49 49 -56 72c-11 43 -3 76 39 152c42 75 96 154 108 154c4 1 7 3 7 7s10 17 22 29c24 25 44 29 47 9c2 -20 -62 -53 -66 -70
c-5 -9 -11 -16 -15 -16c-7 1 -5 -18 -10 -18c-12 -7 -29 -40 -38 -53s-58 -111 -65 -126c-9 -17 -6 -56 6 -80s32 -40 73 -59c32 -15 51 -16 92 -7c112 26 174 113 127 180c-27 39 -63 41 -117 6c-57 -37 -75 -71 -48 -89c15 -10 21 -26 10 -26c-15 0 -36 12 -47 28
c-11 15 -12 19 -5 33c4 8 9 16 12 16c6 0 2 18 9 17c8 1 46 42 54 44c25 10 54 31 77 27z" />
    <glyph glyph-name="seven" unicode="7" horiz-adv-x="397" 
d="M331 452c-8 -34 -78 -167 -71 -165c0 -2 -7 -19 -15 -37c-31 -64 -30 -66 -40 -113c-5 -10 1 -64 -13 -63c-14 -5 -29 5 -28 19c5 58 28 105 43 153c4 15 11 29 13 31c6 4 40 78 40 86c0 4 6 16 13 30c15 31 41 101 38 103c-1 1 -29 -4 -63 -12
c-83 -20 -181 -27 -202 -17c-18 9 -21 20 -9 30c5 4 16 5 37 -1c62 -18 208 12 252 38c17 10 41 7 41 -4c-1 -14 -21 -59 -29 -64c-4 -2 -7 -9 -7 -14z" />
    <glyph glyph-name="eight" unicode="8" horiz-adv-x="380" 
d="M165 303c-6 0 -19 -20 -26 -41c-18 -53 -1 -87 56 -114c45 -21 96 -28 111 -16c29 24 -24 101 -104 150c-18 11 -35 21 -37 21zM291 241c1 -6 32 -27 30 -36c0 -5 2 -9 5 -9c8 0 19 -56 14 -69c-13 -37 -79 -43 -139 -13c-51 26 -68 38 -85 65c-23 37 -18 94 13 130
c7 8 5 12 -17 27c-14 10 -38 34 -53 52c-28 32 -29 35 -29 69c0 44 13 66 53 86c57 28 120 14 150 -36c9 -15 14 -30 12 -35c-5 -14 -25 -9 -36 11c-14 24 -20 31 -40 39c-47 18 -109 -21 -109 -68c0 -24 11 -42 50 -80c30 -29 46 -33 70 -18c21 13 58 31 74 45
c16 13 17 7 38 26c22 20 20 25 -18 46c-40 22 -25 37 21 20c26 -10 55 -33 55 -42c-5 -19 -86 -78 -112 -91c-24 -12 -45 -26 -46 -34c-1 -5 13 -17 30 -28c33 -21 69 -50 69 -57z" />
    <glyph glyph-name="nine" unicode="9" horiz-adv-x="330" 
d="M277 428c-4 79 -20 -16 -17 -57c11 14 16 31 17 57zM227 392c0 38 -3 54 -8 58c-4 2 -7 7 -6 10c3 16 -2 24 -20 31c-31 11 -42 9 -76 -15c-39 -27 -50 -40 -55 -65c-4 -24 7 -49 34 -70c17 -12 29 -16 64 -19c63 -4 67 1 67 70zM269 131c-10 0 -30 26 -42 53
c-9 20 -10 77 -9 113c-85 -6 -152 15 -178 69c-14 27 -16 59 0 82c29 42 100 100 172 71c8 -4 23 -7 31 -5c24 5 51 -22 56 -55c5 -34 -8 -94 -25 -112c-34 -36 -35 -155 -2 -191c12 -13 11 -25 -3 -25z" />
    <glyph glyph-name="colon" unicode=":" horiz-adv-x="151" 
d="M44 139c16 5 18 4 30 -2c24 -13 5 -75 -22 -70c-24 4 -30 66 -8 72zM38 353c0 10 24 31 39 34c31 7 59 -34 34 -47c-31 -16 -73 -9 -73 13z" />
    <glyph glyph-name="semicolon" unicode=";" horiz-adv-x="141" 
d="M47 16c7 0 10 75 -3 68c-15 0 -10 25 7 40c14 12 17 13 28 5c10 -7 13 -16 14 -44c2 -47 -12 -81 -36 -83c-15 -2 -22 7 -10 14zM42 364c15 20 36 21 56 1c19 -19 16 -34 -7 -41c-10 -3 -23 -7 -30 -11c-28 -13 -42 22 -19 51z" />
    <glyph glyph-name="less" unicode="&#x3c;" horiz-adv-x="364" 
d="M241 398c8 0 19 -15 19 -26c0 -10 -9 -20 -67 -83c-12 -13 -22 -27 -22 -29s-3 -4 -7 -4c-22 -9 -66 -54 -84 -65c49 -18 130 -35 186 -45c61 -11 68 -11 68 -26c0 -14 -2 -16 -32 -14c-74 6 -118 26 -192 40c-57 11 -78 20 -80 36c-1 9 4 15 16 21
c37 18 130 109 168 161c13 19 25 34 27 34z" />
    <glyph glyph-name="equal" unicode="=" horiz-adv-x="539" 
d="M509 200c0 -12 -4 -14 -31 -18c-34 -6 -325 -13 -360 -20c-45 -9 -56 10 -40 33c-15 8 380 11 374 14c1 1 14 2 29 3c25 1 28 0 28 -12zM386 333c20 0 22 -2 22 -15c0 -16 -1 -17 -44 -19c-109 -4 -189 -9 -225 -17c-64 -13 -98 -14 -106 -2c-12 18 7 28 53 32
c60 5 206 13 274 18c1 2 14 3 26 3z" />
    <glyph glyph-name="greater" unicode="&#x3e;" horiz-adv-x="415" 
d="M337 315c10 -10 49 1 48 -17c0 -14 -22 -31 -40 -31c-7 0 -14 -1 -16 -5c-2 -3 -15 -11 -29 -18c-60 -30 -81 -42 -81 -48c0 -3 -3 -5 -7 -5c-16 -4 -44 -29 -60 -36c-9 -5 -19 -15 -22 -22c-4 -11 -7 -12 -18 -8c-28 10 -15 40 26 58c20 9 39 30 57 39
c-1 2 152 75 103 75c-30 0 -50 12 -88 20c-89 19 -108 25 -142 42c-36 18 -47 35 -31 45c10 7 21 7 25 1c9 -15 101 -50 169 -64c83 -17 95 -19 106 -26z" />
    <glyph glyph-name="question" unicode="?" horiz-adv-x="313" 
d="M151 156c11 12 35 15 38 4c9 -31 -17 -58 -41 -50c-11 4 -9 33 3 46zM130 344c4 0 37 31 41 30c3 0 20 15 38 34c37 38 51 74 37 88c-10 10 -77 13 -108 5c-21 -5 -66 -40 -70 -55c-6 -10 -5 -42 -23 -42c-16 0 -19 12 -11 40c8 29 48 67 85 80c30 10 105 12 131 3
c29 -11 43 -53 25 -84c-10 -18 -41 -60 -47 -62c-17 -12 -25 -22 -54 -45c-28 -23 -34 -31 -32 -44c1 -9 7 -18 16 -23c22 -11 19 -22 -6 -24c-18 -2 -24 2 -35 17c-10 14 -13 22 -9 39c4 22 15 43 22 43z" />
    <glyph glyph-name="at" unicode="@" horiz-adv-x="478" 
d="M233 208c-5 8 -7 8 -38 -9c-17 -9 -32 -13 -40 -11c-23 5 -15 -7 9 -14c57 -16 93 -14 146 8c28 12 25 15 -6 7c-26 -14 -59 10 -71 19zM91 256c0 69 71 159 154 159c17 0 22 -3 36 -23c17 -24 16 -42 0 -42c-5 0 -14 9 -21 18c-12 17 -41 25 -41 12c0 -3 -5 -6 -11 -8
c-13 -4 -60 -48 -60 -56c0 -4 -3 -7 -7 -8c-3 -1 -8 -13 -11 -27c-7 -31 0 -54 20 -59c28 -7 69 14 69 35c0 14 16 63 25 74c4 5 8 6 17 1c11 -6 12 -11 9 -37c-2 -17 -6 -32 -10 -36c-11 -11 -7 -27 10 -35c17 -9 30 -6 71 12c20 9 55 41 55 50c0 4 4 9 8 14
c5 5 10 30 13 60c8 88 4 104 -27 122c-26 15 -117 11 -160 -7c-20 -9 -66 -36 -74 -44c-4 -4 -18 -16 -32 -27c-30 -25 -40 -49 -53 -87c-12 -33 11 -65 20 -92v31zM337 196c-1 -8 19 5 18 -4c0 -7 -44 -43 -52 -43c-28 -8 -40 -21 -90 -16s-69 11 -100 34
c-66 49 -99 118 -76 164c5 9 13 26 18 37c7 18 45 59 53 59c2 0 13 10 25 22c35 32 100 61 151 69c59 9 110 2 135 -22c28 -25 31 -40 27 -118c-2 -40 -7 -80 -12 -90c-14 -31 -41 -59 -70 -73c-15 -8 -27 -16 -27 -19z" />
    <glyph glyph-name="A" unicode="A" horiz-adv-x="533" 
d="M213 325c3 -5 -48 -78 -46 -79c19 0 98 16 122 16c17 0 31 0 31 2c-4 15 -35 96 -39 114c-11 52 -4 71 -47 -19c-7 -13 -14 -24 -16 -25c-3 -1 -5 -5 -5 -9zM213 395c0 13 12 12 12 27c0 16 12 6 12 25s13 38 33 52c29 19 35 14 36 -33c0 -23 2 -53 4 -67
c6 -32 36 -119 44 -127c4 -4 27 -4 71 1c76 8 78 8 78 1c-26 -24 -91 -26 -129 -43c19 -32 35 -71 58 -98c18 -21 8 -18 31 -41c12 -12 17 -23 15 -28c-7 -17 -26 -11 -40 11c-7 11 -15 21 -18 21s-5 3 -5 6c0 8 -31 36 -30 45c2 10 -11 6 -12 13c0 12 -39 72 -47 72
c-15 0 -129 -19 -145 -18c-37 3 -52 -50 -72 -74c-17 -20 -3 -34 -16 -51c-5 -5 -10 -14 -12 -21c-5 -17 -38 -31 -46 -19c-3 5 -5 12 -5 17c7 30 30 59 44 85c7 12 14 22 16 22c6 0 17 29 17 44c0 8 4 18 11 22c13 9 95 144 95 156z" />
    <glyph glyph-name="B" unicode="B" horiz-adv-x="564" 
d="M185 279c-23 0 -26 -6 -31 -62c-2 -20 -6 -45 -9 -56c-11 -53 -9 -61 35 -62c14 -1 26 -3 28 -4c5 -5 154 9 171 16c10 5 26 9 36 11c38 8 92 64 92 97c0 17 -34 53 -63 66c-26 12 -40 22 -76 27c-41 5 -38 12 -74 -4c-35 -15 -85 -29 -109 -29zM339 368c9 0 61 57 67 74
c35 98 -102 81 -173 50c-19 -8 -23 -5 -41 -19c-14 -12 -16 -16 -18 -72s-1 -59 10 -57c13 3 137 5 140 16c5 5 11 8 15 8zM160 498c9 0 66 31 76 30c26 4 37 14 75 17c92 8 130 -15 130 -81c0 -31 -26 -83 -50 -98c-20 -13 -18 -25 3 -29c9 -2 30 -10 46 -17
c64 -30 100 -73 93 -111c-9 -50 -50 -97 -100 -114c-13 -4 -27 -10 -31 -12c-17 -12 -161 -22 -227 -14c-47 5 -50 6 -58 14c-4 4 -12 7 -19 7c-16 0 -49 28 -62 48s4 68 14 77c8 7 9 5 5 -20c-4 -22 -3 -32 5 -46c9 -15 42 -36 47 -29s15 69 15 90c2 44 19 117 18 168
c0 43 -1 48 -12 51c-18 5 -15 26 7 49c11 11 21 20 25 20z" />
    <glyph glyph-name="C" unicode="C" horiz-adv-x="500" 
d="M400 404c-20 9 -55 58 -76 71c-23 14 -28 17 -69 16c-50 -2 -58 -9 -87 -23c-21 -9 -57 -35 -64 -45c-2 -4 -8 -11 -12 -15c-12 -14 -28 -52 -28 -70c0 -9 4 -27 9 -39c11 -25 60 -75 81 -82c8 -2 18 -8 23 -12c17 -14 96 -34 136 -33c49 1 105 19 129 43
c20 20 35 19 24 -2s-35 -45 -51 -51c-42 -15 -141 -28 -147 -19c-2 4 -6 5 -8 4c-8 -5 -86 21 -105 35c-19 15 -19 10 -33 20c-68 51 -97 100 -91 149c9 71 89 141 164 160c48 12 106 13 139 -4c53 -27 102 -103 66 -103z" />
    <glyph glyph-name="D" unicode="D" horiz-adv-x="544" 
d="M148 417c3 6 25 2 33 1c-1 -61 0 -230 3 -260c1 -8 -1 -13 -10 -14c-11 -2 -14 3 -19 30c-5 24 -11 217 -7 243zM30 134c0 27 18 18 18 6c0 -15 66 -24 115 -18c76 9 149 30 207 60c45 23 84 58 101 96c23 50 19 82 -21 120c-69 65 -248 112 -353 61
c-22 -11 -48 -10 -53 5c-5 17 16 34 42 35c10 1 25 3 33 5c25 8 131 6 171 -3c98 -22 139 -40 181 -83c40 -41 52 -84 35 -127c-4 -11 -12 -31 -16 -43c-13 -34 -52 -66 -119 -98c-78 -37 -128 -50 -223 -57c-43 -3 -55 -2 -84 9c-32 12 -34 13 -34 32z" />
    <glyph glyph-name="E" unicode="E" horiz-adv-x="502" 
d="M61 451c-19 0 -31 10 -31 25c0 10 5 13 22 11c4 -1 11 6 14 14c7 17 21 20 36 6c9 -8 27 -10 130 -9c66 1 132 3 147 4c38 4 83 4 85 1c1 -1 4 -8 6 -15c4 -11 2 -14 -10 -17c-2 -5 -349 -8 -345 -17c-5 -16 -2 -121 -3 -158c65 5 159 12 239 15c-5 -40 -9 -32 -111 -41
c-33 -3 -75 -5 -93 -9c-38 -8 -37 -6 -43 -80c-4 -47 -4 -47 10 -51c8 -2 81 -5 163 -5c133 -1 162 -3 145 -14c-22 -14 -340 -27 -354 -15c-9 8 -12 33 -3 37c4 2 8 40 15 135c1 12 2 24 4 27c7 11 6 108 -1 132c-5 21 -8 24 -22 24z" />
    <glyph glyph-name="F" unicode="F" horiz-adv-x="368" 
d="M57 469c12 0 17 -5 22 -19c8 -20 11 -20 90 -5c69 13 138 24 150 24s14 -3 12 -16c-2 -18 -6 -20 -94 -29c-34 -4 -96 -18 -126 -23c-9 -2 -18 -7 -20 -12c-5 -14 4 -86 11 -82c11 5 211 6 220 11c12 3 16 1 16 -4c0 -9 -15 -17 -62 -31c-32 -10 -161 -16 -173 -8
c-6 4 -8 -4 -8 -34c0 -46 -10 -122 -19 -152c-5 -18 -9 -23 -20 -23c-20 0 -22 8 -9 46c13 39 19 117 14 205c-3 54 -4 59 -17 65c-15 7 -19 32 -5 37c7 3 7 10 5 27c-4 22 -2 23 13 23z" />
    <glyph glyph-name="G" unicode="G" horiz-adv-x="483" 
d="M300 486c-7 0 -12 3 -14 6c-5 8 -48 7 -83 -2c-115 -31 -165 -102 -126 -181c35 -72 154 -155 219 -155c39 0 104 48 115 85c8 27 5 42 -9 37c-5 -2 -28 -9 -51 -9h-88c-2 9 1 14 10 18c18 8 126 30 146 30c24 0 39 -27 33 -68c-3 -18 -6 -152 -18 -157
c-14 0 -20 17 -22 50c-3 36 -1 47 -23 25c-45 -44 -94 -50 -160 -24c-33 13 -53 27 -75 38c-8 0 -74 70 -96 103c-37 54 -37 119 -1 158c21 22 86 64 101 64c7 0 13 3 15 6c9 9 48 7 62 12c27 8 50 6 80 -9c38 -18 46 -24 58 -51c13 -28 13 -45 -2 -53c-10 -5 -11 -3 -17 19
c-8 27 -37 58 -54 58z" />
    <glyph glyph-name="H" unicode="H" horiz-adv-x="404" 
d="M230 249c-12 -7 -124 -5 -160 -5v-31c-2 -71 -4 -79 -8 -86c-2 -4 -9 -7 -16 -7c-12 0 -13 1 -9 63c11 172 11 212 2 241c-12 37 -12 41 5 49c25 11 32 -13 32 -104c0 -63 2 -77 10 -84c16 -13 119 -15 154 -3c69 25 73 30 73 81c0 9 3 23 7 30c8 15 10 27 14 90
c2 33 6 50 13 55c11 8 14 9 23 3c7 -5 2 -54 -10 -108c-24 -105 -35 -232 -24 -295c4 -21 5 -40 4 -41c-7 -6 -26 6 -30 18c-4 4 -9 165 -14 168c-3 -2 -68 -29 -66 -34z" />
    <glyph glyph-name="I" unicode="I" horiz-adv-x="539" 
d="M509 225c0 -14 -61 -33 -133 -40c-59 -6 -96 -20 -139 -23c-8 1 -51 -3 -95 -7c-88 -9 -112 -6 -112 12c0 17 8 20 79 21c55 1 85 -1 122 3v127c0 114 2 127 11 132c14 8 17 8 25 -2c5 -6 6 -20 3 -43c-4 -38 -7 -201 -3 -205s208 22 229 29c9 3 13 2 13 -4zM58 512
c31 4 95 -6 125 -10c5 -4 237 7 254 11c18 4 35 -13 24 -24s-374 -20 -394 -9c-13 7 -17 23 -9 32z" />
    <glyph glyph-name="J" unicode="J" 
d="M278 463c-2 -16 65 -167 65 -217c0 -9 4 -30 9 -45c16 -39 -6 -83 -25 -100c-69 -64 -218 -35 -277 51c-24 36 -27 125 -4 120c8 -2 9 -8 8 -36c-6 -90 78 -140 171 -140c66 0 100 25 100 74c0 26 -25 131 -36 152c-8 15 -22 71 -32 84c-6 9 -19 46 -22 57
c-7 0 -79 -16 -88 -6c-18 8 -27 24 -16 31c13 8 134 1 176 9c31 6 119 9 119 2c0 -13 -19 -20 -50 -19c-43 1 -27 -11 -69 -11c-16 0 -29 -3 -29 -6z" />
    <glyph glyph-name="K" unicode="K" 
d="M321 438c-17 -18 -17 -8 -42 -34c-28 -28 -49 -26 -67 -56c-10 -17 -9 -23 -2 -43c8 -23 42 -75 59 -90c16 -14 91 -47 114 -51c42 -8 17 -25 -27 -18c-41 7 -100 37 -130 69c-15 15 -36 46 -46 67s-21 39 -24 39c-12 0 -82 -47 -81 -55c2 -17 -9 -134 -14 -162
c-6 -31 -16 -39 -28 -24c-5 5 -4 24 1 67c7 54 10 345 3 378c-7 15 19 12 33 12c3 -47 9 -195 13 -216c11 4 27 17 44 23c28 10 32 19 59 32c28 14 130 89 142 103c12 13 60 46 66 65c6 17 12 17 26 2c10 -11 9 -12 -13 -34c-22 -23 -66 -53 -86 -74z" />
    <glyph glyph-name="L" unicode="L" horiz-adv-x="358" 
d="M47 504c20 0 25 -34 32 -200c4 -98 8 -165 12 -169s49 -7 122 -7c103 0 115 -1 115 -10c0 -16 -31 -22 -129 -22c-51 0 -101 -2 -111 -3c-38 -5 -36 -12 -41 157c-2 98 -7 167 -12 190c-8 35 -9 56 12 64z" />
    <glyph glyph-name="M" unicode="M" horiz-adv-x="653" 
d="M66 440c12 11 -1 26 27 22c17 -2 23 -8 54 -57c83 -127 92 -139 120 -169c26 -28 49 -41 55 -32s13 64 15 78c2 7 5 40 9 74c8 85 12 104 24 106c11 2 35 -21 35 -34c0 -5 3 -16 8 -26c28 -64 36 -81 50 -102c40 -58 54 -78 71 -98c26 -29 12 -22 39 -52
c16 -18 24 -22 36 -20c10 2 14 0 14 -5c0 -14 -8 -22 -27 -26c-16 -4 -20 0 -36 16c-18 18 -51 70 -66 88c-29 35 -76 103 -91 137c-10 22 -21 40 -23 40c-4 0 -6 -30 -14 -121c-3 -30 -8 -86 -34 -92c-15 -3 -21 -3 -40 9c-47 30 -105 101 -160 194c-11 18 -23 34 -27 34
c-7 0 -10 -23 -18 -134c-3 -61 -11 -65 -17 -121c-5 -47 -9 -55 -27 -52c-16 2 -16 10 -5 79c14 85 19 140 20 196c1 38 3 63 8 68z" />
    <glyph glyph-name="N" unicode="N" horiz-adv-x="469" 
d="M398 543c0 -5 -3 -12 -7 -16c-20 -21 -28 -52 -25 -95c2 -24 7 -45 11 -47c9 -8 -2 -12 4 -31c14 -42 55 -203 57 -221c5 -29 -16 -46 -50 -41c-55 7 -107 33 -137 66c-23 24 -88 90 -108 117c-24 31 -24 29 -46 57c-12 17 -15 17 -19 8c-6 -52 -11 -228 -23 -235
c-4 -4 -9 -4 -16 0c-18 12 -5 101 -2 127c5 34 10 119 8 170c-1 17 1 32 4 34c12 7 36 -3 36 -15c0 -15 56 -110 85 -140c6 -6 43 -54 54 -55c4 0 11 -5 15 -12c22 -41 108 -94 152 -94c16 0 17 9 4 53c-10 32 -18 76 -26 103c-14 47 -28 99 -33 160c-4 49 -2 56 27 102
c9 14 35 18 35 5z" />
    <glyph glyph-name="O" unicode="O" horiz-adv-x="432" 
d="M251 441c0 26 -2 31 -12 32c-15 1 -24 -5 -50 -22c-27 -17 -64 -66 -90 -95c-6 -6 -18 -33 -26 -59c-14 -43 -16 -51 -9 -72c8 -26 48 -70 79 -86c27 -14 107 -12 141 3c37 16 68 45 77 71c11 31 10 165 -1 185c-22 38 -40 59 -56 67c-17 8 -17 8 -19 -4
c-4 -30 -8 -38 -21 -44s-14 -6 -13 24zM295 493c-2 -5 49 -25 48 -29c0 -2 7 -12 15 -22c30 -34 46 -94 44 -166c-1 -62 -8 -83 -37 -116c-48 -55 -172 -79 -235 -46c-26 14 -77 60 -77 69c0 4 -4 11 -10 16c-14 15 -17 64 -5 97c27 76 31 66 68 113c28 36 60 65 93 84
c17 10 34 16 43 14c40 -7 53 -10 53 -14z" />
    <glyph glyph-name="P" unicode="P" horiz-adv-x="459" 
d="M321 484c-45 21 -84 18 -141 -7c-18 -8 -18 -9 -23 -63c-2 -30 -5 -80 -5 -111c0 -78 -3 -50 49 -50c43 0 120 33 151 57c37 28 49 53 46 100c-1 21 -37 56 -77 74zM419 340c-16 -19 -7 -18 -30 -39c-31 -28 -38 -34 -47 -34c-4 0 -10 -2 -13 -5
c-16 -14 -102 -35 -143 -36c-17 0 -33 -3 -35 -7s-5 -35 -6 -69c-1 -68 -5 -93 -17 -98c-13 -5 -23 11 -16 28c4 8 6 44 6 80c0 60 0 66 -10 66c-25 0 -78 32 -78 47c0 8 3 8 25 -5c18 -11 39 -15 62 -19l4 84c4 79 3 86 -8 96c-7 6 -12 13 -12 16c0 9 54 59 65 59
c20 0 19 9 46 19c77 30 184 -39 207 -86c12 -25 12 -82 0 -97z" />
    <glyph glyph-name="Q" unicode="Q" horiz-adv-x="541" 
d="M320 173c8 0 13 -11 24 -45c7 -24 15 -46 19 -49c11 -9 69 25 91 52c52 63 46 197 -13 251c-39 36 -61 57 -91 69c-18 8 -23 3 -10 -11c8 -9 8 -15 3 -24c-7 -14 -23 -17 -23 -5c0 9 -27 36 -45 45c-15 8 -64 12 -85 8s-62 -45 -82 -83c-10 -18 -25 -55 -34 -81
c-27 -79 -14 -141 40 -199c37 -40 93 -57 168 -49c59 6 60 9 38 64c-19 48 -19 57 0 57zM414 2c-3 -5 54 -44 54 -46c-37 -5 -35 -1 -78 40c-48 46 -42 44 -82 32c-4 -2 -31 -4 -62 -4c-49 0 -60 2 -90 16c-40 18 -96 73 -101 98c-2 9 -5 17 -8 17c-9 1 -4 25 -12 27
c-10 6 -3 90 8 114c17 38 10 33 37 89c43 88 73 110 149 110c24 0 43 2 43 4c0 7 23 7 35 0c5 -5 80 -36 84 -43c0 -3 1 -5 5 -5c9 0 66 -55 83 -80c25 -37 33 -70 32 -134c0 -50 -2 -63 -16 -90c-20 -41 -49 -70 -83 -84c-31 -13 -34 -20 -13 -41c8 -8 15 -17 15 -20z" />
    <glyph glyph-name="R" unicode="R" horiz-adv-x="510" 
d="M254 297c17 0 58 49 63 72c11 53 -58 124 -130 117c-24 -2 -51 -5 -63 -10c-21 -9 -22 -12 -28 -50c-9 -55 -8 -114 -16 -164c6 -6 58 -7 72 -2c15 6 79 22 89 32c2 3 8 5 13 5zM314 302c-4 -8 -17 -4 -23 -13c-7 -10 -69 -39 -81 -39c-18 0 -28 -13 -51 -15
c-12 -1 -22 -6 -22 -8c0 -6 90 -48 102 -48c5 0 10 -3 12 -6c2 -7 69 -24 72 -31c2 -2 13 -9 24 -13c46 -20 133 -96 133 -117c0 -12 -17 -3 -44 22c-16 15 -31 26 -34 26c-7 0 -3 13 -12 12c-16 5 -26 17 -46 24c-35 12 -35 20 -77 38c-59 25 -106 41 -160 71
c-14 8 -26 14 -29 13c-2 -2 -7 -27 -9 -57c-4 -56 -13 -83 -25 -83c-11 0 -14 15 -14 81c0 43 2 61 7 60c11 0 26 86 22 128c-10 -21 -16 -45 -17 -81c-1 -63 -10 -46 -11 18c-1 59 12 137 30 179c7 17 17 26 41 37c27 13 40 16 84 16c70 0 113 -22 140 -72
c20 -37 21 -102 2 -123c-8 -8 -14 -16 -14 -19z" />
    <glyph glyph-name="S" unicode="S" horiz-adv-x="411" 
d="M317 397c0 -20 -25 -13 -42 11c-34 51 -71 78 -105 78c-32 0 -50 -34 -50 -97c0 -38 13 -79 27 -85c2 -1 4 -4 4 -7c0 -6 54 -60 104 -104c70 -60 96 -87 111 -116c20 -36 19 -44 -3 -65c-17 -15 -22 -17 -61 -17c-70 0 -152 29 -216 75c-52 37 -75 98 -38 173
c10 22 24 27 17 6c-28 -95 -12 -135 74 -179s169 -58 201 -33l15 11c-19 40 -58 77 -109 120c-52 43 -123 116 -137 144c-9 20 -14 43 -16 73c-4 76 16 121 58 131c34 8 83 -13 113 -47c44 -51 53 -61 53 -72z" />
    <glyph glyph-name="T" unicode="T" horiz-adv-x="597" 
d="M30 421c0 13 25 24 63 28c25 2 136 12 162 14c5 1 61 -2 125 -6c120 -7 147 -5 159 9c8 9 12 10 23 3c14 -4 -6 -40 -8 -49l-277 6c15 -72 9 -162 19 -239c4 -36 -2 -53 -10 -76c-24 23 -20 225 -34 268l-10 43c-49 -3 -130 -7 -164 -15c-35 -9 -48 -6 -48 14z" />
    <glyph glyph-name="U" unicode="U" 
d="M325 443c0 10 4 9 33 -3c48 -20 83 -100 62 -181c-3 -13 -7 -32 -9 -42c-12 -54 -70 -131 -116 -153c-54 -25 -119 -23 -157 6c-48 36 -79 80 -99 139c-9 28 -11 44 -8 106c7 139 11 192 13 200c4 9 24 9 32 -1c4 -5 4 -13 0 -25c-21 -67 -26 -235 -9 -284
c25 -70 71 -118 121 -125c94 -12 150 29 194 138c13 34 15 50 16 94c1 49 -1 56 -16 79c-9 14 -25 29 -36 34s-21 14 -21 18z" />
    <glyph glyph-name="V" unicode="V" horiz-adv-x="471" 
d="M412 601c25 40 43 23 8 -42c-44 -83 -71 -164 -104 -247c-13 -33 -58 -135 -67 -180c2 -23 -41 -19 -42 -4c-11 32 -46 96 -60 134c-9 24 -21 49 -26 53c-8 8 1 20 -7 23c-13 5 -34 56 -44 66c-17 16 -7 18 -26 35c-17 15 -19 41 -5 46c15 6 41 -31 85 -120
c15 -29 29 -54 32 -55c2 -1 4 -5 4 -9c0 -15 54 -125 62 -125c2 0 7 4 9 9c33 70 58 135 87 206c2 16 31 63 31 81c0 12 34 84 63 129z" />
    <glyph glyph-name="W" unicode="W" horiz-adv-x="638" 
d="M528 487c2 14 18 21 18 38s19 53 40 75c28 30 30 9 3 -49c-37 -79 -28 -79 -52 -136c-10 -24 -21 -83 -29 -112c-15 -51 -21 -84 -21 -115c0 -41 -4 -51 -21 -51c-12 0 -62 48 -62 59c0 2 -7 16 -16 28c-24 34 -31 48 -31 59c0 5 -4 12 -9 16c-10 8 -39 92 -39 113
c0 8 -2 16 -6 18c-3 2 -5 -2 -5 -9s-4 -20 -9 -28c-16 -25 -34 -95 -45 -130c-7 -13 -3 -36 -11 -45c-3 -2 -7 -15 -9 -29c-9 -56 -15 -70 -28 -68c-7 1 -15 5 -17 10c-12 23 -29 63 -29 70c-7 25 -15 34 -31 75c-38 96 -66 155 -79 166c-17 14 -11 44 7 44
c15 0 23 -12 46 -68c19 -47 45 -97 57 -138c-1 -15 11 -15 11 -27s19 -50 26 -65c3 11 9 36 16 38c4 0 6 5 6 10c11 71 58 174 71 231c-1 13 18 41 18 55c0 8 3 12 14 12c17 0 20 -5 23 -81c2 -58 23 -87 37 -137c3 -11 6 -19 9 -19c7 0 3 -31 11 -30c9 -3 12 -31 20 -36
c4 -4 13 -17 21 -27c18 -25 24 -24 24 4c0 55 20 82 33 148c15 75 28 75 38 131z" />
    <glyph glyph-name="X" unicode="X" horiz-adv-x="529" 
d="M112 478c4 -19 42 -50 48 -66c0 -3 10 -17 35 -48c9 -12 4 -16 17 -27c10 -8 13 -7 55 33c48 45 132 121 153 164c8 14 35 7 35 -12c0 -8 -41 -50 -174 -176c-49 -47 -48 -50 -20 -81c18 -21 9 -17 36 -46c14 -15 40 -43 58 -63c43 -47 85 -76 119 -81
c20 -3 27 -6 25 -12s-14 -9 -35 -9c-28 0 -37 4 -64 24c-28 21 -53 47 -141 140c-31 33 -21 36 -48 55c-8 0 -115 -116 -140 -152c-15 -22 -20 -24 -30 -19c-15 8 -14 11 -1 28c29 36 39 50 89 101c31 31 58 61 60 66c13 6 -51 94 -54 94c-6 0 -3 18 -10 18c-3 0 -7 5 -9 11
c-2 5 -12 20 -23 31c-25 27 -38 60 -26 70c24 18 41 -26 45 -43z" />
    <glyph glyph-name="Y" unicode="Y" horiz-adv-x="414" 
d="M154 356c7 1 11 -30 18 -29c3 0 5 -3 5 -7c0 -12 37 -53 48 -53c14 0 41 28 41 42c4 20 19 22 24 48c6 23 23 50 23 70c0 14 26 85 40 110c15 27 31 35 31 15c0 -14 -29 -68 -29 -79c0 -5 -2 -10 -5 -13c-3 -4 -13 -34 -22 -68c-15 -58 -33 -101 -55 -126
c-7 -8 -9 -28 -8 -107c1 -53 2 -102 3 -110c2 -20 -11 -22 -19 -3c-12 28 -20 123 -18 184l-23 10c-22 10 -66 61 -66 78c0 4 -6 14 -13 22c-28 31 -52 63 -52 68c-1 2 -12 11 -24 20c-25 18 -29 29 -15 41c8 7 12 7 24 0c17 -9 86 -94 86 -105c0 -4 2 -8 6 -8z" />
    <glyph glyph-name="Z" unicode="Z" horiz-adv-x="541" 
d="M105 391c16 25 60 1 39 -19c-23 -23 -60 -5 -39 19zM363 509c39 6 23 -24 10 -36c-37 -35 -124 -154 -171 -220l38 -7c35 -6 37 -6 17 -10c-11 -2 -32 -4 -46 -6c-24 -2 -60 -27 -61 -41c0 -3 -6 -14 -13 -24c-20 -28 -52 -81 -52 -87c0 -3 6 -3 14 0c59 22 248 27 331 7
c58 -14 81 -22 81 -29c0 -2 -3 -10 -7 -16c-7 -9 -9 -9 -31 0c-82 35 -315 34 -382 0c-32 -17 -49 -18 -58 -7c-5 5 -4 11 2 21c19 35 54 103 72 121c20 22 34 45 30 49c-2 2 -20 1 -40 -3c-41 -8 -59 -5 -59 11c0 14 7 16 71 21c43 4 58 6 65 14c43 52 88 114 98 134
c5 10 15 24 23 33c15 17 21 35 8 25c-26 -20 -199 -50 -217 -38c-5 2 -7 11 -6 19c2 13 5 14 32 13c38 -1 127 13 165 28c30 12 36 6 53 19c5 4 19 8 33 9z" />
    <glyph glyph-name="underscore" unicode="_" horiz-adv-x="562" 
d="M158 -5c167 0 374 -6 374 -12s-85 -10 -275 -14c-91 -2 -175 -5 -186 -7c-24 -4 -46 9 -40 24c4 8 18 9 127 9z" />
    <glyph glyph-name="grave" unicode="`" horiz-adv-x="232" 
d="M196 374c-10 0 -50 20 -55 28c-2 4 -8 7 -12 7c-11 0 -99 86 -99 96c-1 24 28 19 38 3c12 -19 73 -78 104 -99c27 -18 39 -35 24 -35z" />
    <glyph glyph-name="a" unicode="a" horiz-adv-x="369" 
d="M164 267c-40 1 -28 -8 -55 -20c-22 -10 -46 -44 -46 -66c0 -8 6 -26 13 -38c12 -22 22 -28 64 -33c36 -5 97 50 72 65c-6 6 -11 75 -16 82c-2 8 -11 10 -32 10zM253 197c0 -39 1 -41 21 -59c12 -10 28 -20 37 -22c34 -8 38 -26 6 -26c-24 0 -55 24 -77 41l-24 -20
c-40 -34 -109 -36 -148 -3c-25 21 -47 78 -35 94c4 5 9 15 12 22c7 15 43 42 77 59c22 11 34 12 62 10c19 -2 37 -3 42 -5c14 -5 27 -49 27 -91z" />
    <glyph glyph-name="b" unicode="b" horiz-adv-x="509" 
d="M433 287c-14 14 -19 16 -54 15c-21 0 -43 -1 -48 -3c-44 -14 -92 -40 -123 -67c-13 -11 -13 -14 -12 -87l2 -76c17 0 52 -2 59 3c7 4 11 5 36 10c69 14 98 27 126 55c27 27 29 32 33 67c5 45 2 61 -19 83zM156 444c-8 30 26 20 30 9c4 -2 10 -176 12 -180
c17 2 47 26 65 32c7 2 26 8 44 15c40 15 91 16 119 2c40 -20 53 -45 53 -106c0 -40 -2 -49 -16 -70c-42 -68 -137 -94 -238 -100c-15 -1 -27 -3 -29 -8c-2 -8 -20 -9 -28 -1c-3 3 -27 8 -52 12c-40 6 -50 11 -67 27s-21 23 -19 38c1 11 6 21 11 22c5 2 7 1 5 -1
s-2 -13 2 -23c8 -22 32 -33 82 -38l35 -4c8 144 8 309 -9 374z" />
    <glyph glyph-name="c" unicode="c" horiz-adv-x="364" 
d="M262 222c-10 -3 -3 151 -14 148c-9 9 -54 3 -69 -10c-6 -6 -12 -10 -14 -10c-6 0 -28 -18 -50 -41c-26 -28 -56 -90 -60 -124c-3 -31 8 -55 36 -81c22 -21 85 -39 120 -35c38 4 83 24 102 39c46 36 0 -36 -20 -36c-11 1 -5 -13 -17 -12c-5 0 -16 -4 -24 -9
c-21 -14 -104 -13 -124 0c-8 5 -17 9 -21 9c-8 0 -20 10 -48 38c-40 40 -38 96 2 172c27 51 26 50 64 80c35 28 34 29 80 49c11 4 62 1 64 -3c15 -28 17 -38 15 -98c-2 -64 -8 -84 -22 -76z" />
    <glyph glyph-name="d" unicode="d" horiz-adv-x="362" 
d="M60 193c0 -27 36 -63 77 -80c22 -9 121 -10 130 -1c6 -2 13 138 13 143c2 8 -9 58 -14 65c-8 10 -80 9 -104 -2c-40 -17 -102 -94 -102 -125zM295 533c17 24 31 -23 24 -45c-8 -26 -6 -117 -10 -149c-2 -18 -3 -45 0 -61c5 -25 4 -32 -4 -38c-8 -5 -9 -17 -8 -58
c1 -49 7 -67 17 -51c5 7 18 4 18 -5c0 -2 -7 -8 -15 -12c-13 -7 -15 -12 -15 -42c0 -18 -1 -35 -3 -37c-8 -8 -24 8 -25 25c-1 25 -5 31 -19 24s-102 -8 -110 -1c-4 3 -18 9 -33 15c-47 17 -83 61 -82 100c1 30 77 129 99 129c4 0 8 2 8 4c12 27 108 31 136 19
c11 -5 11 -4 12 16c4 44 10 117 10 167z" />
    <glyph glyph-name="e" unicode="e" horiz-adv-x="377" 
d="M222 321c-2 0 -7 1 -12 3c-20 8 -92 -46 -120 -88c-15 -24 -5 -29 58 -25c44 3 56 7 73 19c17 13 20 19 20 38c0 23 -11 53 -19 53zM63 159c0 -18 25 -57 37 -57c4 0 12 -5 18 -10c8 -8 22 -10 62 -9c53 1 98 11 119 31c10 9 26 11 30 23c0 3 4 6 9 6c15 0 11 -18 -9 -36
c-41 -38 -127 -64 -183 -55c-34 5 -80 38 -96 62c-12 19 -15 60 -19 83c-3 19 30 28 34 49c8 20 70 80 102 100c14 8 23 10 44 7c15 -2 28 -5 31 -7c10 -6 29 -56 28 -77c-1 -62 -54 -89 -175 -91c-31 -1 -32 -1 -32 -19z" />
    <glyph glyph-name="f" unicode="f" horiz-adv-x="296" 
d="M123 546c-1 20 12 18 12 35c0 7 8 15 17 20c25 14 50 12 68 -6c19 -18 12 -24 24 -45c4 -7 10 -28 11 -46c2 -31 1 -32 -13 -32s-17 2 -19 32c-2 41 -17 70 -42 77c-9 0 -28 -25 -28 -37c0 -4 -4 -14 -8 -22c-15 -26 -24 -116 -28 -172c40 -4 100 13 138 27
c21 8 10 -8 -17 -25c-28 -17 -79 -30 -123 -34c2 -61 5 -124 5 -192c0 -61 -2 -73 -9 -79c-8 -6 -37 -3 -23 10c8 16 7 177 1 230c-1 15 -3 16 -27 16c-21 0 -27 3 -30 12c-12 31 27 20 46 29c13 6 14 10 18 49c8 92 13 123 20 130c4 4 7 14 7 23z" />
    <glyph glyph-name="g" unicode="g" horiz-adv-x="382" 
d="M261 286c0 12 -19 47 -25 47c-7 -1 -4 18 -10 17c-3 0 -7 7 -11 15c-11 23 -49 21 -87 -5c-34 -22 -39 -27 -57 -59c-15 -28 -12 -42 12 -66c17 -17 22 -18 61 -17c31 0 48 3 61 11c28 18 56 46 56 57zM232 -46c-73 0 -126 16 -162 47c-15 13 -16 18 -16 56
c1 42 1 46 32 96c11 18 27 26 27 14c0 -3 -2 -6 -4 -6c-8 0 -26 -36 -26 -53c0 -9 -2 -24 -6 -32c-8 -22 10 -63 28 -63c3 0 9 -3 13 -7c12 -12 61 -22 116 -23c50 0 56 2 74 17c34 28 32 72 -6 187c-22 67 -29 73 -50 51c-43 -44 -134 -62 -175 -34c-25 17 -47 49 -47 67
c0 14 23 62 30 62c2 0 9 8 16 19c7 12 24 27 46 39c30 16 42 17 80 18c35 0 49 -2 58 -10c26 -25 26 -95 45 -140c41 -98 47 -135 47 -196c1 -66 -9 -89 -40 -96c-9 -2 -17 -6 -19 -8c-2 -3 -30 -5 -61 -5z" />
    <glyph glyph-name="h" unicode="h" horiz-adv-x="350" 
d="M206 321c-38 0 -78 -44 -84 -60c0 -5 -2 -12 -19 -46c-6 -12 -10 -33 -10 -53c0 -31 -2 -35 -15 -41c-12 -6 -16 -6 -16 3c0 130 -1 301 -25 383c-5 20 -8 41 -6 49c4 16 9 17 21 3c10 -12 21 -69 29 -158c5 -52 8 -89 12 -126c0 -8 17 -3 17 5c0 9 36 46 57 58
c12 8 29 12 49 12c27 0 34 -2 49 -17c18 -17 12 -21 25 -35c4 -4 10 -14 12 -23c20 -91 21 -98 15 -109c-7 -14 -20 -12 -22 4c-13 95 -46 151 -89 151z" />
    <glyph glyph-name="i" unicode="i" horiz-adv-x="127" 
d="M37 373c5 8 44 14 31 -9c-10 -43 -10 -96 -1 -140c12 -58 12 -77 0 -89c-15 -16 -19 -11 -22 28c-1 20 -6 52 -10 72c-8 36 -6 124 2 138zM58 501c11 14 23 11 27 -7c0 -16 20 -33 8 -47c-9 -11 -23 -1 -34 26c-7 15 -7 21 -1 28z" />
    <glyph glyph-name="j" unicode="j" horiz-adv-x="268" 
d="M184 328c0 -4 3 -9 8 -13c13 -11 36 -59 43 -97c16 -96 -24 -206 -125 -206c-38 0 -41 0 -54 15c-8 9 -14 20 -14 25s-2 8 -6 8c-8 0 -8 35 0 59c10 28 17 22 17 -14c0 -21 3 -35 9 -41c5 -5 9 -11 9 -14c0 -12 23 -18 51 -13c24 5 34 12 55 34c14 15 24 30 24 34
s3 9 6 10c4 1 7 24 7 53c1 46 -1 56 -16 86c-9 19 -18 35 -20 37c-31 32 -37 41 -30 50c4 5 9 9 11 9c7 -1 25 -16 25 -22zM136 502c11 12 25 8 36 -11c12 -21 3 -32 -20 -23c-19 7 -26 22 -16 34z" />
    <glyph glyph-name="k" unicode="k" horiz-adv-x="411" 
d="M71 480c13 0 15 -1 15 -21c0 -18 -16 -141 -10 -160c3 -9 6 -9 15 -1c18 16 34 14 54 35c11 10 25 19 31 21c12 3 6 13 18 14c4 0 21 13 36 28c29 28 38 30 31 6c-3 -13 -42 -58 -50 -58c-2 0 -16 -11 -30 -23c-22 -21 -25 -24 -21 -41c6 -26 9 -13 22 -36
c30 -54 127 -119 181 -126c26 -3 22 -16 -5 -16c-37 0 -81 17 -124 47c-60 42 -75 58 -95 111c-8 21 -18 24 -30 10c-4 -5 -12 -8 -17 -8c-18 0 -24 -14 -24 -56c0 -40 -8 -63 -21 -63c-7 0 -20 21 -16 26c7 16 6 34 12 61c4 21 4 31 -1 33c-4 1 -2 9 5 19c9 14 10 28 9 103
c-1 47 -1 88 0 91c0 2 7 4 15 4z" />
    <glyph glyph-name="l" unicode="l" horiz-adv-x="103" 
d="M45 152c-17 0 -21 56 -8 136c2 10 7 263 8 277c1 7 16 4 24 -5c7 -8 6 -32 -3 -85c-2 -11 -6 -89 -8 -172c-4 -127 -5 -151 -13 -151z" />
    <glyph glyph-name="m" unicode="m" horiz-adv-x="527" 
d="M491 66c-7 0 -8 6 -10 98c-1 79 -4 84 -13 138c-6 37 -22 63 -43 65c-20 2 -58 -34 -78 -76c-26 -54 -32 -45 -41 -77c-19 -68 -21 -79 -30 -81c-12 -2 -12 -5 -10 91c1 72 0 80 -12 100c-7 11 -16 20 -20 20c-15 0 -41 -11 -51 -23c-6 -7 -13 -12 -17 -12
c-9 1 -4 -19 -12 -18c-15 0 -67 -137 -78 -202c-9 -53 -5 -45 -37 -46c8 72 12 172 2 227c-17 98 -15 98 -1 98c7 0 13 -3 15 -5c4 -7 9 -48 14 -114c3 -50 4 -57 11 -48c13 17 7 27 20 49c6 11 16 29 21 40c14 29 63 75 91 84c20 7 27 7 39 0c21 -11 39 -51 39 -88
c0 -36 6 -37 24 -6c24 41 45 83 88 106c43 24 71 8 86 -50c11 -41 13 -270 3 -270z" />
    <glyph glyph-name="n" unicode="n" horiz-adv-x="330" 
d="M284 243c0 -67 2 -94 9 -112c10 -25 9 -32 -6 -27c-18 7 -27 45 -26 107c1 79 -6 134 -19 151c-8 12 -13 14 -31 10c-25 -5 -87 -62 -87 -80c0 -7 -2 -13 -5 -13c-10 0 -37 -96 -37 -134c-1 -55 -1 -56 -34 -55c-1 68 2 211 -9 244c-14 42 -13 46 1 46
c13 0 23 -20 28 -62c8 -66 14 -72 29 -25c12 37 44 70 89 96c29 17 53 15 78 7c12 -11 20 -75 20 -153z" />
    <glyph glyph-name="o" unicode="o" horiz-adv-x="342" 
d="M195 359c-18 12 -20 12 -56 -5c-40 -18 -69 -53 -79 -91c-7 -28 -6 -33 5 -51c30 -48 59 -64 118 -64c33 0 39 2 59 17c56 42 58 116 14 172c-12 15 -16 18 -31 16c-11 -2 -22 0 -30 6zM30 247c0 60 69 149 154 144c16 -2 31 -1 33 1c5 8 14 7 33 -7
c23 -17 43 -52 55 -95c23 -77 -24 -138 -75 -161c-27 -12 -76 -12 -105 -2c-51 17 -95 72 -95 120z" />
    <glyph glyph-name="p" unicode="p" horiz-adv-x="326" 
d="M259 225c0 5 4 14 8 18c9 9 8 77 -2 102c-10 24 -18 37 -41 46c-43 16 -132 -46 -147 -102c-4 -14 -7 -55 -6 -98c1 -51 3 -69 7 -57c3 10 8 27 13 36c8 18 8 18 8 -14v-32l28 4c46 6 132 69 132 97zM72 108c-1 0 -2 -31 -2 -68c0 -66 -7 -115 -18 -133
c-5 -8 -6 -8 -15 1s-9 11 -2 29c7 15 8 62 7 229c-1 199 0 208 10 208c19 0 16 -31 36 -8c27 31 70 53 127 61c15 2 49 -20 54 -34c2 -5 7 -14 11 -19c14 -17 22 -81 13 -114c-20 -75 -46 -109 -103 -139c-46 -24 -82 -31 -100 -22c-9 5 -17 9 -18 9z" />
    <glyph glyph-name="q" unicode="q" horiz-adv-x="292" 
d="M235 107c-2 30 -6 55 -9 57c-9 3 -4 -11 -9 -21c-7 -38 -9 -123 -2 -147c6 -24 8 -25 16 -17c10 10 11 30 4 128zM99 338c-28 0 -54 -57 -47 -100c4 -25 49 -77 66 -77c27 0 87 46 87 98c0 32 16 65 4 88c-4 5 -13 9 -20 8c-55 -4 -66 -6 -71 -11c-4 -3 -12 -6 -19 -6z
M250 -35c-13 -13 -26 -4 -29 -23c0 -7 -3 -12 -8 -12s-13 16 -21 43c-19 61 -21 80 -10 122c10 40 13 72 5 72c-2 0 -13 -6 -24 -14c-38 -28 -64 -25 -100 14c-25 28 -33 48 -33 93c1 50 13 81 36 92c9 4 17 9 19 11c16 9 81 26 121 19c25 -4 45 8 45 -18
c0 -18 13 -34 3 -49c-4 -1 -31 -88 -18 -94c12 -6 25 -101 26 -177c1 -63 -1 -67 -12 -79z" />
    <glyph glyph-name="r" unicode="r" horiz-adv-x="285" 
d="M255 433c0 -3 -20 -26 -45 -51c-26 -27 -50 -58 -57 -74s-15 -29 -18 -29c-6 -4 -3 -35 -10 -38c-3 -4 -6 -19 -8 -36c-9 -79 -14 -92 -34 -87c-23 -3 2 67 -4 80c-2 34 -20 90 -34 105c-20 21 -20 41 0 41c16 0 35 -25 42 -53c7 -33 8 -33 25 -6c9 15 19 32 21 40
c7 19 13 9 21 30c8 19 36 49 65 69c22 15 36 18 36 9z" />
    <glyph glyph-name="s" unicode="s" horiz-adv-x="373" 
d="M279 350c-8 0 -19 6 -26 13c-12 13 -45 30 -63 32c-11 1 -49 -12 -73 -26c-25 -14 -16 -41 32 -87c32 -31 36 -34 93 -66c88 -50 110 -73 98 -105c-9 -25 -38 -35 -110 -38c-67 -3 -98 5 -140 15c-9 2 -16 5 -16 8s-3 6 -7 6c-14 6 -46 36 -34 74c16 54 10 -29 18 -27
c2 0 5 -3 5 -7c0 -10 40 -37 62 -43c33 -9 141 -11 166 -3s44 22 44 31c0 8 -48 52 -57 52c-11 0 -5 13 -16 12c-20 4 -25 15 -48 25c-37 16 -97 63 -104 77c-3 7 -11 22 -17 31c-17 26 -16 49 2 57c8 4 15 9 15 11c0 4 27 13 56 20c18 4 79 -2 94 -9c37 -19 53 -53 26 -53z
" />
    <glyph glyph-name="t" unicode="t" horiz-adv-x="326" 
d="M146 498c15 0 15 -1 11 -22c-4 -26 -8 -100 -10 -139c37 1 115 6 136 11c7 2 13 1 13 -1c0 -7 -79 -26 -105 -26c-40 0 -43 -5 -42 -75c1 -35 5 -78 9 -96c11 -45 10 -48 -7 -48c-8 0 -14 3 -14 7c-1 42 -13 196 -15 198c-1 2 -19 0 -40 -3c-41 -6 -52 -4 -52 8
c0 5 7 8 17 9c53 2 66 4 71 9c4 4 12 92 13 152c0 13 2 16 15 16z" />
    <glyph glyph-name="u" unicode="u" horiz-adv-x="354" 
d="M272 439c6 0 7 -4 5 -61c-1 -25 -4 -54 -7 -65c-17 -58 8 -154 48 -186c8 -7 8 -8 1 -13c-7 -4 -13 -1 -26 13c-18 20 -46 72 -46 87c0 8 -2 6 -9 -3c-21 -29 -48 -51 -78 -65c-32 -15 -33 -15 -57 -6c-14 5 -29 16 -34 23c-28 40 -18 44 -33 86c-6 18 -7 37 -5 59
c7 62 11 75 25 77c18 3 22 -13 10 -38c-8 -17 -9 -31 -7 -70c8 -120 69 -150 144 -72c30 32 37 62 42 145c4 75 -3 77 27 89z" />
    <glyph glyph-name="v" unicode="v" horiz-adv-x="327" 
d="M101 228c-9 15 -7 30 -13 41c-10 7 -40 69 -50 77c-11 8 -10 28 -1 39s40 -40 79 -132c15 -35 42 -90 49 -100c8 -10 8 -10 17 3c23 34 37 140 54 197c14 47 13 62 31 97c9 18 22 24 29 13c2 -3 0 -8 -5 -12c-11 -9 -27 -72 -33 -86c-2 -7 -12 -51 -21 -98
c-19 -99 -38 -145 -60 -151c-25 -7 -43 32 -50 48c-16 35 -17 49 -26 64z" />
    <glyph glyph-name="w" unicode="w" horiz-adv-x="463" 
d="M270 193c-2 -17 19 -23 18 -41c0 -7 3 -16 8 -20c7 -6 8 0 12 36c9 79 34 181 57 237c9 13 3 25 13 35c16 17 21 76 50 76c10 0 6 -18 -9 -41c-37 -55 -76 -203 -81 -305s-7 -110 -24 -110s-11 14 -19 18c-8 0 -31 50 -35 75c-8 39 -12 30 -25 77c-15 53 -25 61 -39 39
c-11 -15 -18 -33 -27 -83c-5 -28 -16 -37 -17 -62c-2 -34 -27 -80 -39 -68c-4 -7 -52 193 -70 253c-12 41 -17 62 -10 71c5 8 8 7 18 -5c7 -8 12 -22 12 -33c0 -21 26 -126 38 -157c8 -19 12 -38 16 -57c9 10 22 28 23 44c2 31 25 62 28 91c2 18 13 17 13 32
c0 13 28 37 40 33c11 7 50 -124 49 -135z" />
    <glyph glyph-name="x" unicode="x" horiz-adv-x="378" 
d="M237 415c7 2 14 41 28 36c24 0 23 -28 -2 -55c-8 -9 -15 -18 -15 -22c1 -7 -30 -44 -29 -51c-1 -3 -7 -13 -15 -22c-13 -17 -14 -18 -4 -33c21 -31 109 -132 137 -148c9 -5 13 -13 11 -15c-13 -21 -143 109 -176 144c-17 -24 -63 -84 -71 -99c-2 -5 -11 -18 -22 -29
c-24 -26 -46 -26 -49 0c-1 11 1 17 6 16c9 -2 35 13 35 20c0 3 3 9 7 13c34 38 76 103 73 114c-5 15 -68 84 -108 118c-18 16 -12 29 12 23c17 -4 57 -39 57 -50c0 -9 17 -5 18 -11c2 -10 31 -41 36 -49c5 -18 36 31 35 33c5 17 18 21 23 44c4 13 11 23 13 23z" />
    <glyph glyph-name="y" unicode="y" horiz-adv-x="326" 
d="M137 30c-2 9 41 115 41 122c0 4 -10 9 -22 11c-20 4 -67 40 -67 52c-5 15 -36 84 -41 101c-4 12 -10 23 -13 25c-10 7 -4 26 8 30c17 5 29 -9 32 -34c2 -22 5 -28 29 -77c19 -38 47 -69 62 -69c14 0 46 55 51 88c5 39 16 59 21 100c7 49 11 66 23 93c19 45 50 19 27 -36
c-9 -22 -10 -44 -17 -60c-5 -5 -2 -42 -10 -46c-14 -30 -31 -109 -37 -122c-9 -19 -24 -76 -35 -96c-14 -22 -7 -36 -16 -56c-12 -26 -36 -95 -36 -109c0 -9 -3 -18 -6 -20c-7 -4 -24 -79 -24 -103c0 -12 -3 -18 -9 -18c-7 0 -9 8 -9 35c0 34 6 60 33 139c8 22 15 45 15 50z
" />
    <glyph glyph-name="z" unicode="z" horiz-adv-x="409" 
d="M218 120c-42 -3 -43 -13 -103 -13c-56 0 -58 0 -71 17c-18 22 -15 25 6 43c25 22 41 28 71 47c-17 5 -39 17 -38 34c0 2 18 2 39 0c31 -2 41 -1 49 7c5 5 23 19 37 30c30 22 59 60 59 76c0 9 -5 10 -49 6c-69 -5 -121 -21 -188 -24v42c84 -4 167 13 243 17
c12 1 41 -2 32 -19c-11 -38 -34 -76 -64 -105c-18 -18 -33 -36 -33 -38c-1 -4 49 2 47 -3c0 -8 -38 -16 -87 -26c-28 -6 -34 -21 -64 -40c-17 -10 -30 -21 -30 -25c0 -8 89 -11 125 -3c17 4 54 10 85 17c97 20 95 21 95 4c0 -12 -3 -15 -16 -15c-22 -1 -113 -20 -118 -25
c-2 -2 -15 -4 -27 -4z" />
    <glyph glyph-name="uni0093" horiz-adv-x="221" 
d="M188 456c-1 -46 -5 -46 -27 -34c-10 10 -8 74 3 95c12 24 29 21 27 -4c-1 -10 -2 -35 -3 -57zM63 368c-18 0 -33 24 -33 54c0 20 15 94 24 116c4 9 9 11 17 9c15 -4 17 -27 3 -60c-9 -24 -9 -87 0 -108c4 -9 1 -11 -11 -11z" />
    <glyph glyph-name="uni0094" horiz-adv-x="191" 
d="M47 516c20 0 21 -2 27 -63c4 -44 -3 -67 -21 -67c-11 0 -13 2 -10 22c5 28 -8 71 -12 92c-3 15 -1 16 16 16zM131 500c0 38 0 40 13 38c12 -2 13 -5 16 -55c4 -58 2 -70 -9 -66s-20 41 -20 83z" />
    </font>
</defs>
</svg>
